<?xml version="1.0" encoding="UTF-8"?>
<svg xmlns="http://www.w3.org/2000/svg" xmlns:xlink="http://www.w3.org/1999/xlink" viewBox="0 0 75 75" width="75px" height="75px">
<g id="surface70080389">
<path style=" stroke:none;fill-rule:nonzero;fill:rgb(100%,100%,100%);fill-opacity:1;" d="M 26.585938 15 C 15.839844 15 15 15.839844 15 26.585938 L 15 48.417969 C 15 59.160156 15.839844 60 26.585938 60 L 48.417969 60 C 59.160156 60 60 59.160156 60 48.417969 L 60 26.65625 C 60 15.84375 59.15625 15 48.347656 15 Z M 25.5 16.5 L 49.5 16.5 C 57.847656 16.5 58.5 17.152344 58.5 25.5 L 58.5 49.5 C 58.5 57.847656 57.847656 58.5 49.5 58.5 L 25.5 58.5 C 17.152344 58.5 16.5 57.847656 16.5 49.5 L 16.5 25.5 C 16.5 17.152344 17.152344 16.5 25.5 16.5 Z M 26.816406 22.320312 C 24.984375 22.320312 23.496094 23.800781 23.496094 25.632812 C 23.496094 27.464844 24.980469 28.949219 26.816406 28.949219 C 28.644531 28.949219 30.128906 27.464844 30.128906 25.632812 C 30.128906 23.804688 28.644531 22.320312 26.816406 22.320312 Z M 44.175781 31.113281 C 41.40625 31.113281 39.550781 32.632812 38.792969 34.074219 L 38.714844 34.074219 L 38.714844 31.570312 L 33.257812 31.570312 L 33.257812 49.875 L 38.945312 49.875 L 38.945312 40.820312 C 38.945312 38.433594 39.394531 36.117188 42.359375 36.117188 C 45.273438 36.117188 45.316406 38.847656 45.316406 40.972656 L 45.316406 49.875 L 51 49.875 L 51 39.835938 C 51 34.90625 49.933594 31.113281 44.175781 31.113281 Z M 23.96875 31.570312 L 23.96875 49.875 L 29.65625 49.875 L 29.65625 31.570312 Z M 23.96875 31.570312 "/>
</g>
</svg>
