<?xml version="1.0" encoding="UTF-8"?>
<svg xmlns="http://www.w3.org/2000/svg" xmlns:xlink="http://www.w3.org/1999/xlink" viewBox="0 0 75 75" width="75px" height="75px">
<g id="surface70123290">
<path style=" stroke:none;fill-rule:nonzero;fill:rgb(100%,100%,100%);fill-opacity:1;" d="M 66 21.324219 C 64.433594 23.664062 62.449219 25.726562 60.160156 27.375 C 60.183594 27.878906 60.195312 28.382812 60.195312 28.886719 C 60.195312 44.339844 48.4375 62.160156 26.925781 62.160156 C 20.320312 62.160156 11.714844 59.84375 9 56.90625 C 9.917969 57.015625 10.847656 57.070312 11.789062 57.070312 C 17.269531 57.070312 22.3125 55.199219 26.3125 52.0625 C 21.195312 51.96875 16.878906 48.585938 15.386719 43.941406 C 17.714844 44.308594 20.671875 43.738281 20.671875 43.738281 C 20.671875 43.738281 11.527344 42.171875 11.289062 32.128906 C 13.933594 33.660156 16.585938 33.589844 16.585938 33.589844 C 16.585938 33.589844 11.3125 30.34375 11.386719 23.859375 C 11.429688 20.035156 12.964844 17.976562 12.964844 17.976562 C 22.957031 30.28125 37.070312 30.195312 37.070312 30.195312 C 37.070312 30.195312 36.765625 28.449219 36.765625 27.53125 C 36.765625 21.078125 42 15.839844 48.460938 15.839844 C 51.824219 15.839844 54.863281 17.257812 56.996094 19.53125 C 59.660156 19.007812 62.164062 18.03125 64.421875 16.695312 C 63.402344 20.777344 59.28125 23.164062 59.28125 23.164062 C 59.28125 23.164062 62.808594 22.773438 66 21.324219 Z M 15.070312 58.363281 C 37.199219 66.800781 58.289062 51.285156 58.695312 28.886719 C 58.699219 28.699219 58.648438 28.042969 58.664062 27.480469 C 58.683594 26.789062 58.90625 26.441406 59.394531 26.0625 C 59.878906 25.683594 60.496094 25.234375 61.019531 24.78125 C 61.195312 24.628906 61.097656 24.34375 60.902344 24.347656 C 59.246094 24.410156 58.078125 24.335938 57.285156 24.300781 C 56.792969 24.277344 56.503906 23.613281 56.921875 23.265625 C 57.664062 22.652344 58.808594 21.757812 60.171875 20.574219 C 60.363281 20.40625 60.289062 20.222656 60.050781 20.296875 C 59.058594 20.613281 58.078125 20.84375 57.390625 20.988281 C 56.832031 21.105469 56.394531 21.035156 56.015625 20.617188 C 54.347656 18.769531 51.492188 17.339844 48.460938 17.339844 C 41.75 17.339844 38.269531 22.953125 38.269531 27.535156 C 38.269531 28.414062 38.433594 29.382812 38.582031 30.179688 C 38.804688 31.359375 38.277344 31.824219 37.058594 31.753906 C 32.707031 31.488281 21.816406 29.886719 13.378906 20.722656 C 11.488281 27.054688 15.445312 31.015625 17.957031 32.867188 C 18.914062 33.574219 18.796875 34.648438 17.335938 34.828125 C 16.207031 34.964844 14.75 34.972656 13.039062 34.496094 C 13.863281 39.851562 19.78125 42.011719 22.484375 42.789062 C 23.09375 42.96875 23.441406 43.792969 22.347656 44.457031 C 21.40625 45.023438 19.953125 45.574219 17.804688 45.648438 C 19.894531 49.214844 24.171875 50.152344 27.175781 50.585938 C 28.507812 50.777344 29.054688 52.09375 27.625 53.1875 C 24.949219 55.234375 20.527344 57.777344 15.070312 58.363281 Z M 15.070312 58.363281 "/>
</g>
</svg>
