<?xml version="1.0" encoding="UTF-8"?>
<svg xmlns="http://www.w3.org/2000/svg" xmlns:xlink="http://www.w3.org/1999/xlink" viewBox="0 0 75 75" width="75px" height="75px">
<g id="surface70122704">
<path style=" stroke:none;fill-rule:nonzero;fill:rgb(100%,100%,100%);fill-opacity:1;" d="M 26.585938 15 C 15.839844 15 15 15.839844 15 26.585938 L 15 48.417969 C 15 59.160156 15.839844 60 26.585938 60 L 48.417969 60 C 59.160156 60 60 59.160156 60 48.417969 L 60 26.65625 C 60 15.84375 59.15625 15 48.347656 15 Z M 25.5 16.5 L 49.5 16.5 C 57.847656 16.5 58.5 17.152344 58.5 25.5 L 58.5 49.5 C 58.5 57.847656 57.847656 58.5 49.5 58.5 L 25.5 58.5 C 17.152344 58.5 16.5 57.847656 16.5 49.5 L 16.5 25.5 C 16.5 17.152344 17.152344 16.5 25.5 16.5 Z M 39.019531 23.652344 L 39.019531 42.652344 C 39.019531 45.265625 36.75 46.613281 35.117188 46.613281 C 33.890625 46.613281 31.097656 45.652344 31.097656 42.625 C 31.097656 39.445312 33.707031 38.632812 35.148438 38.632812 C 35.992188 38.632812 36.320312 38.8125 36.320312 38.8125 L 36.320312 33.742188 C 36.320312 33.742188 35.6875 33.648438 34.96875 33.648438 C 29.796875 33.648438 26.117188 37.835938 26.117188 42.625 C 26.117188 46.667969 29.28125 51.566406 35.058594 51.566406 C 41.214844 51.566406 44.035156 46.433594 44.035156 42.652344 L 44.035156 33.226562 C 44.035156 33.226562 46.777344 35.148438 50.457031 35.148438 L 50.457031 30.347656 C 46.238281 30.046875 43.980469 27.210938 43.824219 23.652344 Z M 39.019531 23.652344 "/>
</g>
</svg>
