<?xml version="1.0" encoding="UTF-8"?>
<svg xmlns="http://www.w3.org/2000/svg" xmlns:xlink="http://www.w3.org/1999/xlink" viewBox="0 0 75 75" width="75px" height="75px">
<g id="surface70118171">
<path style=" stroke:none;fill-rule:nonzero;fill:rgb(100%,100%,100%);fill-opacity:1;" d="M 37.273438 15 C 16.617188 15 15 16.617188 15 37.273438 L 15 37.726562 C 15 58.382812 16.617188 60 37.273438 60 L 37.726562 60 C 58.382812 60 60 58.382812 60 37.726562 L 60 37.273438 C 60 16.617188 58.382812 15 37.726562 15 Z M 35.628906 16.5 L 39.371094 16.5 C 57.109375 16.5 58.5 17.890625 58.5 35.628906 L 58.5 39.371094 C 58.5 57.109375 57.109375 58.5 39.371094 58.5 L 35.628906 58.5 C 17.890625 58.5 16.5 57.109375 16.5 39.371094 L 16.5 35.628906 C 16.5 17.890625 17.890625 16.5 35.628906 16.5 Z M 50.242188 22.5 C 49.003906 22.503906 47.996094 23.511719 48 24.757812 C 48.003906 25.996094 49.011719 27.003906 50.257812 27 C 51.496094 26.996094 52.503906 25.988281 52.5 24.742188 C 52.496094 23.503906 51.488281 22.496094 50.242188 22.5 Z M 37.472656 25.5 C 30.84375 25.515625 25.484375 30.902344 25.5 37.527344 C 25.515625 44.15625 30.902344 49.515625 37.527344 49.5 C 44.15625 49.484375 49.515625 44.097656 49.5 37.472656 C 49.484375 30.84375 44.097656 25.484375 37.472656 25.5 Z M 37.472656 27 C 43.273438 26.988281 47.988281 31.675781 48 37.472656 C 48.011719 43.273438 43.324219 47.988281 37.527344 48 C 31.726562 48.011719 27.011719 43.324219 27 37.527344 C 26.988281 31.726562 31.675781 27.011719 37.472656 27 Z M 37.472656 27 "/>
</g>
</svg>
