<?xml version="1.0" standalone="no"?>
<!DOCTYPE svg PUBLIC "-//W3C//DTD SVG 20010904//EN"
 "http://www.w3.org/TR/2001/REC-SVG-20010904/DTD/svg10.dtd">
<svg version="1.0" xmlns="http://www.w3.org/2000/svg"
 width="262.000000pt" height="158.000000pt" viewBox="0 0 262.000000 158.000000"
 preserveAspectRatio="xMidYMid meet">

<g transform="translate(0.000000,158.000000) scale(0.100000,-0.100000)"
fill="#000000" stroke="none">
<path d="M338 1205 c-114 -29 -205 -93 -245 -174 -27 -54 -25 -183 4 -237 44
-82 133 -142 250 -170 86 -20 313 -15 388 9 74 24 155 76 191 124 l32 42 7
-72 c11 -116 -2 -107 146 -107 l129 0 0 295 0 295 -140 0 -140 0 0 -92 0 -91
-28 39 c-37 51 -95 90 -179 122 -59 22 -86 26 -213 28 -102 2 -162 -1 -202
-11z m474 -176 c66 -14 124 -43 138 -68 14 -28 12 -73 -5 -97 -55 -80 -389
-108 -515 -44 -54 28 -76 71 -61 122 22 70 93 96 268 97 67 1 146 -4 175 -10z"/>
<path d="M1893 1200 c-106 -28 -187 -77 -224 -137 -12 -18 -25 -31 -30 -27 -5
3 -9 33 -9 67 0 113 7 107 -141 107 l-129 0 0 -415 0 -415 140 0 140 0 0 211
0 211 33 -44 c85 -111 290 -173 499 -149 244 28 370 143 355 326 -5 74 -32
130 -86 178 -52 47 -87 64 -178 88 -102 26 -270 25 -370 -1z m269 -187 c116
-53 95 -178 -37 -211 -103 -26 -281 -22 -385 9 -60 18 -100 59 -100 101 1 91
99 129 330 125 124 -2 152 -5 192 -24z"/>
</g>
</svg>
